# AST/ASF file generated using VICON BodyLanguage
# -----------------------------------------------
:version 1.10
:name VICON
:units
  mass 1.0
  length 0.45
  angle deg
:documentation
   .ast/.asf automatically generated from VICON data using
   VICON BodyBuilder and BodyLanguage model FoxedUp or BRILLIANT.MOD
:root
   order TX TY TZ RX RY RZ
   axis XYZ
   position 0 0 0  
   orientation 0 -0 0 
:bonedata
  begin
     id 1 
     name lhipjoint
     direction 0.515797 -0.759363 0.396637 
     length 2.47888 
     axis 0 -0 0  XYZ
  end
  begin
     id 2 
     name lfemur
     direction 0.34202 -0.939693 0  
     length 6.81885  
     axis 0 -0 20  XYZ
    dof rx ry rz
    limits (-160.0 20.0)
           (-70.0 70.0)
           (-60.0 70.0)
  end
  begin
     id 3 
     name ltibia
     direction 0.342037 -0.939687 0   
     length 7.89258   
     axis 0 -0 20   XYZ
    dof rx
    limits (-10.0 170.0)
  end
  begin
     id 4 
     name lfoot
     direction 0.173497 -0.476678 0.861787   
     length 2.51543   
     axis -90 -1.13533e-015 20   XYZ
    dof rx rz
    limits (-45.0 90.0)
           (-70.0 20.0)
  end
  begin
     id 5 
     name ltoes
     direction 1.53564e-011 -4.21897e-011 1   
     length 1.21388   
     axis -90 -1.13533e-015 20   XYZ
    dof rx
    limits (-90.0 20.0)
  end
  begin
     id 6 
     name rhipjoint
     direction -0.489454 -0.772941 0.403729   
     length 2.43534  
     axis 0 -0 0  XYZ 
  end
  begin
     id 7 
     name rfemur
     direction -0.34202 -0.939693 0   
     length 7.10357   
     axis 0 -0 -20   XYZ
    dof rx ry rz
    limits (-160.0 20.0)
           (-70.0 70.0)
           (-70.0 60.0)
  end
  begin
     id 8 
     name rtibia
     direction -0.34202 -0.939693 0   
     length 9.16127   
     axis 0 -0 -20   XYZ
    dof rx
    limits (-10.0 170.0)
 end
 begin
     id 9 
     name rfoot
     direction -0.270974 -0.748671 0.605033   
     length 1.74894  
     axis -90 1.13533e-015 -20   XYZ
    dof rx rz
    limits (-45.0 90.0)
           (-20.0 70.0)
  end
  begin
     id 10 
     name rtoes
     direction -1.53557e-011 -4.21759e-011 1   
     length 0.787585   
     axis -90 1.13533e-015 -20   XYZ
    dof rx
    limits (-90.0 20.0)
  end
  begin
     id 11 
     name lowerback
     direction -0.0140249 0.999561 0.0260968   
     length 2.16963   
     axis 0 -0 0   XYZ
    dof rx ry rz
    limits (-20.0 45.0)
           (-30.0 30.0)
           (-30.0 30.0)
  end
  begin
     id 12 
     name upperback
     direction 0.00860018 0.999959 -0.002711   
     length 2.1726   
     axis 0 -0 0   XYZ
    dof rx ry rz
    limits (-20.0 45.0)
           (-30.0 30.0)
           (-30.0 30.0)
  end
  begin
     id 13 
     name thorax
     direction 0.015211 0.999782 -0.0143191   
     length 2.17061   
     axis 0 -0 0   XYZ
    dof rx ry rz
    limits (-20.0 45.0)
           (-30.0 30.0)
           (-30.0 30.0)
  end
  begin
     id 14 
     name lowerneck
     direction -0.0140143 0.999447 0.030145   
     length 2.26749   
     axis 0 -0 0   XYZ
    dof rx ry rz
    limits (-20.0 45.0)
           (-30.0 30.0)
           (-30.0 30.0)
  end
  begin
     id 15 
     name upperneck
     direction 0.118062 0.961438 -0.248392   
     length 2.22728   
     axis 0 -0 0   XYZ
    dof rx ry rz
    limits (-20.0 45.0)
           (-30.0 30.0)
           (-30.0 30.0)
  end
  begin
     id 16
     name head
     direction 0.0431885 0.9954 -0.085514  
     length 2.28786  
     axis 0 -0 0   XYZ
    dof rx ry rz
    limits (-20.0 45.0)
           (-30.0 30.0)
           (-30.0 30.0)
  end
  begin
     id 17 
     name lclavicle
     direction 0.912126 0.409548 0.0172323  
     length 4.31571  
     axis 0 -0 0   XYZ
    dof ry rz
    limits (-20.0 10.0)
           (0.0 20.0)
  end
  begin
     id 18 
     name lhumerus
     direction 1 -4.48977e-011 1.93091e-027   
     length 5.13658   
     axis 180 -30 -90   XYZ
    dof rx ry rz
    limits (-60.0 90.0)
           (-90.0 90.0)
           (-90.0 90.0)
  end
  begin
     id 19
     name lradius
     direction 1 -4.48916e-011 6.84018e-027   
     length 3.22473   
     axis 180 -30 -90   XYZ
    dof rx
    limits (-10.0 170.0)
  end
  begin
     id 20
     name lwrist
     direction 1 -4.48987e-011 7.01981e-027   
     length 1.61236   
     axis -4.37994e-015 90 90   XYZ
    dof ry
    limits (-180.0 0.0)
 end
  begin
     id 21 
     name lhand
     direction 1 -4.49037e-011 1.40335e-026   
     length 0.936406   
     axis -8.96029e-015 90 90   XYZ
    dof rx rz
    limits (-90.0 90.0)
           (-45.0 45.0)
  end
  begin
     id 22 
     name lfingers
     direction 1 -4.48886e-011 2.8104e-026   
     length 0.754955   
     axis -1.79203e-014 90 90   XYZ
    dof rx
    limits (0.0 90.0)
  end
  begin
     id 23
     name lthumb
     direction 0.707107 -6.34937e-011 0.707107   
     length 1.08397   
     axis -90 45 -4.48555e-014   XYZ
    dof rx rz
    limits (-45.0 45.0)
           (-45.0 45.0)
  end
  begin
     id 24 
     name rclavicle
     direction -0.947962 0.317997 0.0156638   
     length 4.86918  
     axis 0 -0 0   XYZ 
    dof ry rz
    limits (-10.0 20.0)
           (-20.0 0.0)
  end
  begin
     id 25 
     name rhumerus
     direction -1 -4.48951e-011 2.80534e-018  
     length 5.60911   
     axis 180 30 90   XYZ
    dof rx ry rz
    limits (-90.0 60.0)
           (-90.0 90.0)
           (-90.0 90.0)
  end
  begin
     id 26 
     name rradius
     direction -1 -4.4898e-011 2.11315e-027   
     length 3.38704   
     axis 180 30 90   XYZ
    dof rx
    limits (-10.0 170.0)
  end
  begin
     id 27 
     name rwrist
     direction -1 -4.48933e-011 7.02314e-027   
     length 1.69352   
     axis -4.37994e-015 -90 -90   XYZ
    dof ry
    limits (-180.0 0.0)
  end
  begin
     id 28
     name rhand
     direction -1 -4.48937e-011 1.40458e-026   
     length 0.755878   
     axis -8.96029e-015 -90 -90   XYZ
    dof rx rz
    limits (-90.0 90.0)
           (-45.0 45.0)
  end
  begin
     id 29
     name rfingers
     direction -1 -4.4901e-011 2.80737e-026   
     length 0.609409   
     axis -1.79203e-014 -90 -90   XYZ
    dof rx
    limits (0.0 90.0)
  end
  begin
     id 30
     name rthumb
     direction -0.707107 -6.34968e-011 0.707107   
     length 0.874992   
     axis -90 -45 4.48555e-014   XYZ
    dof rx rz
    limits (-45.0 45.0)
           (-45.0 45.0)
  end
:hierarchy
  begin
    root lhipjoint rhipjoint lowerback
    lhipjoint lfemur
    lfemur ltibia
    ltibia lfoot
    lfoot ltoes
    rhipjoint rfemur
    rfemur rtibia
    rtibia rfoot
    rfoot rtoes
    lowerback upperback
    upperback thorax
    thorax lowerneck lclavicle rclavicle
    lowerneck upperneck
    upperneck head
    lclavicle lhumerus
    lhumerus lradius
    lradius lwrist
    lwrist lhand lthumb
    lhand lfingers
    rclavicle rhumerus
    rhumerus rradius
    rradius rwrist
    rwrist rhand rthumb
    rhand rfingers
  end

#!OML:ASF C:\ViconDB\ViconDB\414\Spring2016\041811\Spring2016.ASF
:FULLY-SPECIFIED
:DEGREES
139
root 12.8758 18.0801 11.5798 -178.181 -4.96022 -178.451
lowerback -5.69429 0.799649 -1.88743
upperback 0.13357 1.17496 0.177181
thorax 3.28906 0.546763 1.34052
lowerneck -13.2711 2.72691 -3.91045
upperneck 26.174 0.196241 11.339
head 10.5089 0.438816 4.6818
rclavicle -1.87292e-015 7.95139e-015
rhumerus -47.7421 -23.8682 -76.4858
rradius 37.2259
rwrist 39.9718
rhand -33.2961 -13.693
rfingers 7.12502
rthumb -6.50012 -43.5733
lclavicle -1.87292e-015 7.95139e-015
lhumerus -41.3192 3.09623 86.2422
lradius 28.296
lwrist -32.2733
lhand -27.1965 14.5399
lfingers 7.12502
lthumb -0.609915 44.5188
rfemur 164.479 57.8156 -171.116
rtibia 30.051
rfoot -67.4736 -43.7055
rtoes 8.82604e-014
lfemur -5.99897 -9.10924 -13.62
ltibia 25.6956
lfoot -23.5278 2.83484
ltoes -1.64991e-014
140
root 12.8744 18.0799 11.5807 -178.188 -4.88019 -178.454
lowerback -5.64847 0.813501 -1.86265
upperback 0.140256 1.19227 0.142196
thorax 3.27083 0.556308 1.29121
lowerneck -13.2803 2.7229 -3.89362
upperneck 26.1696 0.190894 11.3247
head 10.51 0.436701 4.67298
rclavicle 3.00708e-014 7.95139e-015
rhumerus -47.5755 -23.9663 -76.6611
rradius 37.0906
rwrist 40.5101
rhand -33.1973 -13.6019
rfingers 7.12502
rthumb -6.40465 -43.4851
lclavicle 3.00708e-014 7.95139e-015
lhumerus -41.3022 3.03237 86.2057
lradius 28.2395
lwrist -32.6053
lhand -27.0768 14.519
lfingers 7.12502
lthumb -0.494309 44.4982
rfemur 164.498 57.5881 -171.1
rtibia 30.0675
rfoot -67.3535 -43.7626
rtoes -9.14409e-014
lfemur -6.01019 -8.99141 -13.6251
ltibia 25.7307
lfoot -23.5611 2.79211
ltoes 9.93923e-016
141
root 12.8746 18.0803 11.5802 -178.242 -4.77559 -178.488
lowerback -5.55535 0.833864 -1.90107
upperback 0.158366 1.2215 0.120376
thorax 3.2359 0.570917 1.29114
lowerneck -13.2102 2.70437 -3.78629
upperneck 26.0891 0.203762 11.1464
head 10.4677 0.434892 4.58528
rclavicle 9.51371e-015 -7.55382e-015
rhumerus -47.381 -23.9855 -76.844
rradius 36.9794
rwrist 40.4753
rhand -33.0456 -13.4061
rfingers 7.12502
rthumb -6.25824 -43.2937
lclavicle 9.51371e-015 -7.55382e-015
lhumerus -41.3829 2.66787 86.4492
lradius 28.3471
lwrist -31.5421
lhand -27.4244 14.3121
lfingers 7.12502
lthumb -0.829997 44.2902
rfemur 164.455 57.3533 -171.198
rtibia 30.0399
rfoot -67.2987 -43.5664
rtoes -1.35174e-013
lfemur -5.98302 -8.83406 -13.6674
ltibia 25.8234
lfoot -23.5293 2.74291
ltoes -2.80286e-014
142
root 12.8703 18.0775 11.5748 -178.232 -4.72283 -178.644
lowerback -5.57795 0.834764 -2.0208
upperback 0.178221 1.23326 0.0535453
thorax 3.26771 0.574668 1.29102
lowerneck -13.3277 2.70601 -3.894
upperneck 26.1925 0.193357 11.2396
head 10.528 0.430971 4.64444
rclavicle -3.10322e-014 1.35174e-014
rhumerus -47.1902 -23.9593 -77.075
rradius 36.8684
rwrist 40.8118
rhand -32.9886 -13.4865
rfingers 7.12502
rthumb -6.20318 -43.3756
lclavicle -3.10322e-014 1.35174e-014
lhumerus -41.4427 3.0719 86.2425
lradius 28.3097
lwrist -32.409
lhand -27.2406 14.1255
lfingers 7.12502
lthumb -0.652464 44.1042
rfemur 164.428 57.5501 -171.419
rtibia 30.0256
rfoot -67.6283 -43.5503
rtoes 1.1291e-013
lfemur -6.02737 -8.59743 -13.8555
ltibia 25.9095
lfoot -23.5031 2.61132
ltoes -1.75924e-014
143
root 12.8698 18.0813 11.5851 -178.238 -4.67015 -178.444
lowerback -5.40904 0.84677 -1.82267
upperback 0.157455 1.23161 0.106598
thorax 3.15431 0.578511 1.23101
lowerneck -13.3649 2.70373 -3.92677
upperneck 26.1972 0.211109 11.2131
head 10.5351 0.435664 4.64398
rclavicle -2.39528e-014 -1.98785e-015
rhumerus -47.0272 -23.8829 -77.2698
rradius 36.8739
rwrist 41.0843
rhand -32.9983 -13.5565
rfingers 7.12502
rthumb -6.21252 -43.4454
lclavicle -2.39528e-014 -1.98785e-015
lhumerus -41.4841 2.76414 86.3619
lradius 28.3669
lwrist -32.1178
lhand -27.2706 14.2336
lfingers 7.12502
lthumb -0.681455 44.2123
rfemur 164.57 56.9161 -171.092
rtibia 29.9748
rfoot -66.7961 -43.7971
rtoes 1.20066e-013
lfemur -6.22243 -8.28665 -13.6049
ltibia 26.0219
lfoot -23.3466 2.53516
ltoes 2.127e-014
144
root 12.8693 18.0816 11.5842 -178.241 -4.47292 -178.449
lowerback -5.39523 0.90208 -1.86716
upperback 0.189863 1.30848 0.119078
thorax 3.17615 0.615763 1.27501
lowerneck -13.3859 2.67209 -3.94019
upperneck 26.1573 0.208071 11.1292
head 10.5251 0.428057 4.61444
rclavicle -6.04604e-016 -3.18055e-015
rhumerus -46.8169 -23.7568 -77.5186
rradius 36.9313
rwrist 40.9625
rhand -32.8313 -13.5924
rfingers 7.12502
rthumb -6.0513 -43.486
lclavicle -6.04604e-016 -3.18055e-015
lhumerus -41.4753 2.62563 86.4119
lradius 28.3568
lwrist -32.0971
lhand -27.3167 14.117
lfingers 7.12502
lthumb -0.725961 44.0955
rfemur 164.674 56.5769 -171.022
rtibia 29.934
rfoot -66.6334 -43.8086
rtoes -2.8625e-014
lfemur -6.28973 -7.93796 -13.6034
ltibia 26.1418
lfoot -23.3512 2.46279
ltoes 1.95803e-014
145
root 12.8661 18.0832 11.5896 -178.269 -4.53957 -178.356
lowerback -5.26366 0.896808 -1.76909
upperback 0.209539 1.29389 0.113428
thorax 3.1253 0.610976 1.21069
lowerneck -13.4094 2.63131 -3.87943
upperneck 26.0986 0.166627 11.0653
head 10.5136 0.411743 4.57384
rclavicle -2.83967e-014 -9.93923e-015
rhumerus -46.6552 -23.7662 -77.7217
rradius 36.9346
rwrist 41.1271
rhand -32.8959 -13.3025
rfingers 7.12502
rthumb -6.11373 -43.1943
lclavicle -2.83967e-014 -9.93923e-015
lhumerus -41.3986 2.36888 86.4023
lradius 28.3292
lwrist -32.0817
lhand -27.2846 14.0518
lfingers 7.12502
lthumb -0.694961 44.0304
rfemur 164.69 56.4425 -170.964
rtibia 29.8638
rfoot -66.4928 -43.6379
rtoes -3.18055e-015
lfemur -6.41088 -7.85974 -13.5022
ltibia 26.28
lfoot -23.3395 2.35891
ltoes 4.52235e-014
146
root 12.8618 18.0818 11.5919 -178.26 -4.50614 -178.347
lowerback -5.20791 0.899304 -1.77745
upperback 0.224972 1.29646 0.141739
thorax 3.10899 0.61223 1.24383
lowerneck -13.3979 2.59135 -3.99241
upperneck 26.0275 0.154727 11.069
head 10.4847 0.398955 4.59076
rclavicle -4.41752e-015 -6.36111e-015
rhumerus -46.4594 -23.5388 -77.9888
rradius 37.0018
rwrist 41.1376
rhand -32.8292 -13.5238
rfingers 7.12502
rthumb -6.04932 -43.4175
lclavicle -4.41752e-015 -6.36111e-015
lhumerus -41.3815 2.71761 86.3542
lradius 28.2503
lwrist -32.5049
lhand -27.4857 14.0317
lfingers 7.12502
lthumb -0.889165 44.0096
rfemur 164.756 56.3087 -170.938
rtibia 29.8193
rfoot -66.3634 -43.6485
rtoes -9.46215e-014
lfemur -6.494 -7.79705 -13.5097
ltibia 26.3882
lfoot -23.3692 2.34287
ltoes 2.37548e-014
147
root 12.8563 18.08 11.593 -178.255 -4.46201 -178.367
lowerback -5.14222 0.913369 -1.80052
upperback 0.24066 1.31614 0.134426
thorax 3.08728 0.622034 1.24962
lowerneck -13.4632 2.59124 -4.0457
upperneck 26.028 0.152735 11.1391
head 10.4971 0.40354 4.62749
rclavicle -3.4368e-014 1.23246e-014
rhumerus -46.2941 -23.3338 -78.2262
rradius 37.1235
rwrist 40.8688
rhand -32.7905 -13.1755
rfingers 7.12502
rthumb -6.01195 -43.0702
lclavicle -3.4368e-014 1.23246e-014
lhumerus -41.3963 2.36623 86.4924
lradius 28.3601
lwrist -31.9787
lhand -27.5012 14.0129
lfingers 7.12502
lthumb -0.904206 43.9907
rfemur 164.775 56.1956 -170.966
rtibia 29.7908
rfoot -66.1617 -43.8562
rtoes 1.90038e-013
lfemur -6.54932 -7.81766 -13.5694
ltibia 26.4763
lfoot -23.4276 2.41264
ltoes -2.38542e-014
148
root 12.8488 18.081 11.5968 -178.188 -4.48531 -178.172
lowerback -5.10341 0.894572 -1.59318
upperback 0.227759 1.27657 0.175017
thorax 3.057 0.605844 1.17123
lowerneck -13.503 2.59046 -4.0781
upperneck 25.9629 0.16681 11.1752
head 10.4793 0.415457 4.64677
rclavicle -6.36422e-015 -1.90833e-014
rhumerus -46.0892 -22.9908 -78.5934
rradius 37.2836
rwrist 40.4902
rhand -32.8374 -13.1309
rfingers 7.12502
rthumb -6.05723 -43.0243
lclavicle -6.36422e-015 -1.90833e-014
lhumerus -41.4364 2.17742 86.3202
lradius 28.4799
lwrist -32.391
lhand -27.2361 13.9041
lfingers 7.12502
lthumb -0.648076 43.8829
rfemur 164.97 56.1222 -170.633
rtibia 29.7696
rfoot -66.0239 -43.8805
rtoes 1.90833e-014
lfemur -6.73205 -7.81264 -13.3722
ltibia 26.562
lfoot -23.4038 2.41423
ltoes 8.34896e-015
149
root 12.8417 18.0819 11.6004 -178.168 -4.3974 -178.293
lowerback -4.99533 0.915595 -1.71007
upperback 0.243283 1.3117 0.124142
thorax 3.00983 0.622412 1.18507
lowerneck -13.5865 2.56108 -4.08936
upperneck 25.9451 0.137086 11.1785
head 10.4924 0.405984 4.64813
rclavicle -1.93287e-014 -2.38542e-015
rhumerus -45.9142 -22.755 -78.8841
rradius 37.3801
rwrist 40.7691
rhand -33.0719 -13.3703
rfingers 7.12502
rthumb -6.2836 -43.2571
lclavicle -1.93287e-014 -2.38542e-015
lhumerus -41.5042 1.92657 86.2949
lradius 28.6405
lwrist -32.5164
lhand -27.1729 13.99
lfingers 7.12502
lthumb -0.58709 43.9689
rfemur 165.061 55.9187 -170.711
rtibia 29.7892
rfoot -65.955 -43.7591
rtoes 1.51871e-013
lfemur -6.78803 -7.66681 -13.5227
ltibia 26.6097
lfoot -23.3905 2.38016
ltoes 2.68359e-014
150
root 12.8331 18.0773 11.6021 -178.127 -4.3366 -178.369
lowerback -4.93086 0.936337 -1.79186
upperback 0.251048 1.34399 0.0956487
thorax 2.97943 0.637748 1.20275
lowerneck -13.513 2.52268 -4.07157
upperneck 25.7429 0.131428 11.1247
head 10.405 0.404475 4.615
rclavicle -7.60973e-015 -1.15295e-014
rhumerus -45.7921 -22.5266 -79.1225
rradius 37.584
rwrist 40.7888
rhand -32.9383 -13.2132
rfingers 7.12502
rthumb -6.15468 -43.1038
lclavicle -7.60973e-015 -1.15295e-014
lhumerus -41.644 1.48743 86.3975
lradius 28.9138
lwrist -32.4764
lhand -27.1604 14.2422
lfingers 7.12502
lthumb -0.574965 44.2212
rfemur 165.128 55.8544 -170.749
rtibia 29.8172
rfoot -65.8597 -43.96
rtoes -1.11319e-014
lfemur -6.87685 -7.42551 -13.6182
ltibia 26.6534
lfoot -23.341 2.2439
ltoes 3.47873e-015
